<svg width="27" height="24" viewBox="0 0 27 24" fill="none" xmlns="http://www.w3.org/2000/svg">
<path d="M23.8134 1.82164C20.2544 -0.479961 15.8595 0.594113 13.4868 3.22822C11.1141 0.594113 6.71919 -0.492732 3.16016 1.82164C1.27277 3.04917 0.0864471 5.12065 0.00555242 7.30716C-0.183165 12.2685 4.45436 16.2452 11.532 22.3445L11.6668 22.4595C12.6914 23.3418 14.2687 23.3419 15.2933 22.4468L15.4416 22.3189C22.5192 16.2324 27.1433 12.2557 26.968 7.29439C26.8871 5.12065 25.7008 3.04917 23.8134 1.82164ZM13.6216 20.4392L13.4868 20.5671L13.352 20.4392C6.93489 14.9281 2.70178 11.2839 2.70178 7.58848C2.70178 5.03115 4.72397 3.11313 7.42025 3.11313C9.49636 3.11313 11.5185 4.37907 12.233 6.13082H14.754C15.4551 4.37907 17.4772 3.11313 19.5533 3.11313C22.2496 3.11313 24.2718 5.03115 24.2718 7.58848C24.2718 11.2839 20.0387 14.9281 13.6216 20.4392Z" fill="#335C7A"/>
<path d="M14.6038 2.62849L13.497 3.72082L12.3849 2.62583C11.0243 1.28639 9.17891 0.533973 7.25482 0.534098C5.33072 0.534222 3.48549 1.28688 2.12503 2.6265C0.764584 3.96611 0.000361737 5.78295 0.000488297 7.67733C0.000614857 9.57171 0.76508 11.3884 2.12571 12.7279L12.7817 23.2193C12.9715 23.4059 13.2288 23.5108 13.497 23.5108C13.7653 23.5108 14.0226 23.4059 14.2124 23.2193L24.8778 12.7252C26.2368 11.3855 27.0001 9.56938 26.9998 7.67592C26.9996 5.78246 26.2359 3.96654 24.8765 2.62716C24.2021 1.96278 23.4014 1.43574 22.5201 1.07616C21.6388 0.716574 20.6941 0.531494 19.7401 0.531494C18.7861 0.531494 17.8415 0.716574 16.9602 1.07616C16.0789 1.43574 15.2782 1.96278 14.6038 2.62716V2.62849ZM23.4417 11.3193L13.497 21.1064L3.55641 11.3193C3.0665 10.8421 2.67722 10.2742 2.41095 9.64836C2.14468 9.02252 2.00666 8.35104 2.00482 7.67251C2.00299 6.99399 2.13738 6.32179 2.40027 5.69457C2.66316 5.06735 3.04936 4.49746 3.53668 4.01767C4.024 3.53787 4.60282 3.15764 5.23988 2.89881C5.87695 2.63998 6.55969 2.50767 7.24886 2.50947C7.93803 2.51128 8.62004 2.64716 9.2557 2.90933C9.89135 3.17149 10.4681 3.55475 10.9528 4.03709L12.7857 5.84036C12.8811 5.93436 12.9946 6.00864 13.1195 6.05883C13.2445 6.10902 13.3783 6.13411 13.5133 6.13262C13.6482 6.13114 13.7815 6.10311 13.9052 6.05018C14.029 5.99725 14.1408 5.92049 14.234 5.82442L16.0345 4.03709C17.027 3.12758 18.339 2.63249 19.6947 2.65598C21.0503 2.67946 22.3439 3.21969 23.3032 4.16301C24.2626 5.10633 24.8129 6.37922 24.8385 7.7139C24.8641 9.04857 24.3629 10.341 23.4404 11.3193H23.4417Z" fill="#536471"/>
</svg>
