<svg width="64" height="64" viewBox="0 0 64 64" fill="none" xmlns="http://www.w3.org/2000/svg">
<rect width="64" height="64" rx="12" fill="#FF9500"/>
<path d="M46.8549 59.288C45.8736 59.288 44.9136 59.2133 43.9749 59.064C43.0363 58.9147 42.1509 58.6907 41.3189 58.392C40.4869 58.072 39.7403 57.688 39.0789 57.24C38.7589 57.0053 38.5349 56.7387 38.4069 56.44C38.3003 56.1413 38.2683 55.8533 38.3109 55.576C38.3749 55.2773 38.5029 55.0213 38.6949 54.808C38.8869 54.5947 39.1216 54.4667 39.3989 54.424C39.6763 54.36 39.9856 54.4453 40.3269 54.68C41.2869 55.2987 42.3003 55.7573 43.3669 56.056C44.4336 56.3333 45.5963 56.472 46.8549 56.472C48.6683 56.472 50.0016 56.152 50.8549 55.512C51.7296 54.8507 52.1669 53.9973 52.1669 52.952C52.1669 52.0987 51.8576 51.4267 51.2389 50.936C50.6203 50.424 49.5856 50.0187 48.1349 49.72L44.7109 49.016C42.6843 48.5893 41.1696 47.8853 40.1669 46.904C39.1856 45.9227 38.6949 44.6 38.6949 42.936C38.6949 41.9333 38.8976 41.016 39.3029 40.184C39.7296 39.352 40.3163 38.6373 41.0629 38.04C41.8096 37.4213 42.7056 36.952 43.7509 36.632C44.7963 36.312 45.9376 36.152 47.1749 36.152C48.4976 36.152 49.7349 36.3227 50.8869 36.664C52.0603 37.0053 53.1056 37.528 54.0229 38.232C54.3003 38.424 54.4816 38.6693 54.5669 38.968C54.6736 39.2453 54.6949 39.5227 54.6309 39.8C54.5883 40.0773 54.4709 40.312 54.2789 40.504C54.0869 40.696 53.8416 40.8133 53.5429 40.856C53.2443 40.8773 52.9136 40.7707 52.5509 40.536C51.7189 39.9813 50.8656 39.5867 49.9909 39.352C49.1376 39.096 48.1883 38.968 47.1429 38.968C46.0976 38.968 45.1803 39.128 44.3909 39.448C43.6229 39.768 43.0256 40.216 42.5989 40.792C42.1936 41.368 41.9909 42.0507 41.9909 42.84C41.9909 43.736 42.2789 44.4507 42.8549 44.984C43.4309 45.5173 44.3909 45.9227 45.7349 46.2L49.1269 46.904C51.2603 47.352 52.8496 48.0453 53.8949 48.984C54.9403 49.9227 55.4629 51.1707 55.4629 52.728C55.4629 53.7307 55.2603 54.6373 54.8549 55.448C54.4496 56.2373 53.8736 56.92 53.1269 57.496C52.3803 58.072 51.4736 58.52 50.4069 58.84C49.3616 59.1387 48.1776 59.288 46.8549 59.288Z" fill="black"/>
<path d="M19.0858 59.288C17.5711 59.288 16.2378 59.096 15.0858 58.712C13.9338 58.3067 12.9631 57.7093 12.1738 56.92C11.4058 56.1307 10.8191 55.1493 10.4138 53.976C10.0085 52.8027 9.8058 51.448 9.8058 49.912V37.88C9.8058 37.3253 9.94446 36.9093 10.2218 36.632C10.5205 36.3547 10.9365 36.216 11.4698 36.216C12.0031 36.216 12.4085 36.3547 12.6858 36.632C12.9845 36.9093 13.1338 37.3253 13.1338 37.88V49.848C13.1338 52.0453 13.6351 53.688 14.6378 54.776C15.6618 55.864 17.1445 56.408 19.0858 56.408C21.0485 56.408 22.5311 55.864 23.5338 54.776C24.5365 53.688 25.0378 52.0453 25.0378 49.848V37.88C25.0378 37.3253 25.1765 36.9093 25.4538 36.632C25.7525 36.3547 26.1578 36.216 26.6698 36.216C27.2031 36.216 27.6085 36.3547 27.8858 36.632C28.1631 36.9093 28.3018 37.3253 28.3018 37.88V49.912C28.3018 51.96 27.9498 53.688 27.2458 55.096C26.5631 56.4827 25.5391 57.528 24.1738 58.232C22.8085 58.936 21.1125 59.288 19.0858 59.288Z" fill="black"/>
<path d="M38.9013 30.224C38.3679 30.224 37.9519 30.0747 37.6533 29.776C37.3759 29.4773 37.2373 29.0613 37.2373 28.528V8.88C37.2373 8.32533 37.3759 7.90933 37.6533 7.632C37.9519 7.35467 38.3679 7.216 38.9013 7.216C39.4346 7.216 39.8399 7.35467 40.1173 7.632C40.4159 7.90933 40.5653 8.32533 40.5653 8.88V17.584H40.6293L50.4533 8.08C50.7733 7.78133 51.0719 7.568 51.3493 7.44C51.6479 7.29067 51.9786 7.216 52.3413 7.216C52.8319 7.216 53.1839 7.344 53.3973 7.6C53.6319 7.83467 53.7279 8.12267 53.6853 8.464C53.6426 8.80533 53.4613 9.136 53.1413 9.456L42.9333 19.184L42.9973 17.552L53.6213 27.792C54.0053 28.1547 54.2079 28.528 54.2293 28.912C54.2506 29.296 54.1333 29.616 53.8773 29.872C53.6213 30.1067 53.2586 30.224 52.7893 30.224C52.3626 30.224 52.0213 30.1387 51.7653 29.968C51.5093 29.7973 51.2106 29.552 50.8693 29.232L40.6293 19.472H40.5653V28.528C40.5653 29.0613 40.4266 29.4773 40.1493 29.776C39.8719 30.0747 39.4559 30.224 38.9013 30.224Z" fill="black"/>
<path d="M18.5418 30.224C18.0725 30.224 17.6778 30.1173 17.3578 29.904C17.0591 29.6693 16.8138 29.328 16.6218 28.88L8.0138 9.392C7.84313 8.944 7.80046 8.56 7.8858 8.24C7.97113 7.92 8.1418 7.67467 8.3978 7.504C8.67513 7.312 9.0058 7.216 9.3898 7.216C9.88046 7.216 10.2538 7.32267 10.5098 7.536C10.7658 7.74933 10.9791 8.06933 11.1498 8.496L19.2138 27.184H18.0298L26.0298 8.464C26.2218 8.05867 26.4458 7.74933 26.7018 7.536C26.9791 7.32267 27.3525 7.216 27.8218 7.216C28.2058 7.216 28.5151 7.312 28.7498 7.504C29.0058 7.67467 29.1658 7.92 29.2298 8.24C29.2938 8.56 29.2298 8.944 29.0378 9.392L20.4618 28.88C20.2698 29.328 20.0245 29.6693 19.7258 29.904C19.4271 30.1173 19.0325 30.224 18.5418 30.224Z" fill="black"/>
</svg>
