<svg width="50" height="50" viewBox="0 0 50 50" fill="none" xmlns="http://www.w3.org/2000/svg">
<rect width="50" height="50" rx="10" fill="#FF9500"/>
<path d="M35.608 44.216C34.872 44.216 34.152 44.16 33.448 44.048C32.744 43.936 32.08 43.768 31.456 43.544C30.832 43.304 30.272 43.016 29.776 42.68C29.536 42.504 29.368 42.304 29.272 42.08C29.192 41.856 29.168 41.64 29.2 41.432C29.248 41.208 29.344 41.016 29.488 40.856C29.632 40.696 29.808 40.6 30.016 40.568C30.224 40.52 30.456 40.584 30.712 40.76C31.432 41.224 32.192 41.568 32.992 41.792C33.792 42 34.664 42.104 35.608 42.104C36.968 42.104 37.968 41.864 38.608 41.384C39.264 40.888 39.592 40.248 39.592 39.464C39.592 38.824 39.36 38.32 38.896 37.952C38.432 37.568 37.656 37.264 36.568 37.04L34 36.512C32.48 36.192 31.344 35.664 30.592 34.928C29.856 34.192 29.488 33.2 29.488 31.952C29.488 31.2 29.64 30.512 29.944 29.888C30.264 29.264 30.704 28.728 31.264 28.28C31.824 27.816 32.496 27.464 33.28 27.224C34.064 26.984 34.92 26.864 35.848 26.864C36.84 26.864 37.768 26.992 38.632 27.248C39.512 27.504 40.296 27.896 40.984 28.424C41.192 28.568 41.328 28.752 41.392 28.976C41.472 29.184 41.488 29.392 41.44 29.6C41.408 29.808 41.32 29.984 41.176 30.128C41.032 30.272 40.848 30.36 40.624 30.392C40.4 30.408 40.152 30.328 39.88 30.152C39.256 29.736 38.616 29.44 37.96 29.264C37.32 29.072 36.608 28.976 35.824 28.976C35.04 28.976 34.352 29.096 33.76 29.336C33.184 29.576 32.736 29.912 32.416 30.344C32.112 30.776 31.96 31.288 31.96 31.88C31.96 32.552 32.176 33.088 32.608 33.488C33.04 33.888 33.76 34.192 34.768 34.4L37.312 34.928C38.912 35.264 40.104 35.784 40.888 36.488C41.672 37.192 42.064 38.128 42.064 39.296C42.064 40.048 41.912 40.728 41.608 41.336C41.304 41.928 40.872 42.44 40.312 42.872C39.752 43.304 39.072 43.64 38.272 43.88C37.488 44.104 36.6 44.216 35.608 44.216Z" fill="black"/>
<path d="M14.808 44.216C13.672 44.216 12.672 44.072 11.808 43.784C10.944 43.48 10.216 43.032 9.624 42.44C9.048 41.848 8.608 41.112 8.304 40.232C8 39.352 7.848 38.336 7.848 37.184V28.16C7.848 27.744 7.952 27.432 8.16 27.224C8.384 27.016 8.696 26.912 9.096 26.912C9.496 26.912 9.8 27.016 10.008 27.224C10.232 27.432 10.344 27.744 10.344 28.16V37.136C10.344 38.784 10.72 40.016 11.472 40.832C12.24 41.648 13.352 42.056 14.808 42.056C16.28 42.056 17.392 41.648 18.144 40.832C18.896 40.016 19.272 38.784 19.272 37.136V28.16C19.272 27.744 19.376 27.432 19.584 27.224C19.808 27.016 20.112 26.912 20.496 26.912C20.896 26.912 21.2 27.016 21.408 27.224C21.616 27.432 21.72 27.744 21.72 28.16V37.184C21.72 38.72 21.456 40.016 20.928 41.072C20.416 42.112 19.648 42.896 18.624 43.424C17.6 43.952 16.328 44.216 14.808 44.216Z" fill="black"/>
<path d="M30.216 24.168C29.816 24.168 29.504 24.056 29.28 23.832C29.072 23.608 28.968 23.296 28.968 22.896V8.16C28.968 7.744 29.072 7.432 29.28 7.224C29.504 7.016 29.816 6.912 30.216 6.912C30.616 6.912 30.92 7.016 31.128 7.224C31.352 7.432 31.464 7.744 31.464 8.16V14.688H31.512L38.88 7.56C39.12 7.336 39.344 7.176 39.552 7.08C39.776 6.968 40.024 6.912 40.296 6.912C40.664 6.912 40.928 7.008 41.088 7.2C41.264 7.376 41.336 7.592 41.304 7.848C41.272 8.104 41.136 8.352 40.896 8.592L33.24 15.888L33.288 14.664L41.256 22.344C41.544 22.616 41.696 22.896 41.712 23.184C41.728 23.472 41.64 23.712 41.448 23.904C41.256 24.08 40.984 24.168 40.632 24.168C40.312 24.168 40.056 24.104 39.864 23.976C39.672 23.848 39.448 23.664 39.192 23.424L31.512 16.104H31.464V22.896C31.464 23.296 31.36 23.608 31.152 23.832C30.944 24.056 30.632 24.168 30.216 24.168Z" fill="black"/>
<path d="M14.4 24.168C14.048 24.168 13.752 24.088 13.512 23.928C13.288 23.752 13.104 23.496 12.96 23.16L6.504 8.544C6.376 8.208 6.344 7.92 6.408 7.68C6.472 7.44 6.6 7.256 6.792 7.128C7 6.984 7.248 6.912 7.536 6.912C7.904 6.912 8.184 6.992 8.376 7.152C8.568 7.312 8.728 7.552 8.856 7.872L14.904 21.888H14.016L20.016 7.848C20.16 7.544 20.328 7.312 20.52 7.152C20.728 6.992 21.008 6.912 21.36 6.912C21.648 6.912 21.88 6.984 22.056 7.128C22.248 7.256 22.368 7.44 22.416 7.68C22.464 7.92 22.416 8.208 22.272 8.544L15.84 23.16C15.696 23.496 15.512 23.752 15.288 23.928C15.064 24.088 14.768 24.168 14.4 24.168Z" fill="black"/>
</svg>
