<svg width="100" height="100" viewBox="0 0 100 100" fill="none" xmlns="http://www.w3.org/2000/svg">
<rect width="100" height="100" rx="20" fill="#FF9500"/>
<path d="M71.216 89.432C69.744 89.432 68.304 89.32 66.896 89.096C65.488 88.872 64.16 88.536 62.912 88.088C61.664 87.608 60.544 87.032 59.552 86.36C59.072 86.008 58.736 85.608 58.544 85.16C58.384 84.712 58.336 84.28 58.4 83.864C58.496 83.416 58.688 83.032 58.976 82.712C59.264 82.392 59.616 82.2 60.032 82.136C60.448 82.04 60.912 82.168 61.424 82.52C62.864 83.448 64.384 84.136 65.984 84.584C67.584 85 69.328 85.208 71.216 85.208C73.936 85.208 75.936 84.728 77.216 83.768C78.528 82.776 79.184 81.496 79.184 79.928C79.184 78.648 78.72 77.64 77.792 76.904C76.864 76.136 75.312 75.528 73.136 75.08L68 74.024C64.96 73.384 62.688 72.328 61.184 70.856C59.712 69.384 58.976 67.4 58.976 64.904C58.976 63.4 59.28 62.024 59.888 60.776C60.528 59.528 61.408 58.456 62.528 57.56C63.648 56.632 64.992 55.928 66.56 55.448C68.128 54.968 69.84 54.728 71.696 54.728C73.68 54.728 75.536 54.984 77.264 55.496C79.024 56.008 80.592 56.792 81.968 57.848C82.384 58.136 82.656 58.504 82.784 58.952C82.944 59.368 82.976 59.784 82.88 60.2C82.816 60.616 82.64 60.968 82.352 61.256C82.064 61.544 81.696 61.72 81.248 61.784C80.8 61.816 80.304 61.656 79.76 61.304C78.512 60.472 77.232 59.88 75.92 59.528C74.64 59.144 73.216 58.952 71.648 58.952C70.08 58.952 68.704 59.192 67.52 59.672C66.368 60.152 65.472 60.824 64.832 61.688C64.224 62.552 63.92 63.576 63.92 64.76C63.92 66.104 64.352 67.176 65.216 67.976C66.08 68.776 67.52 69.384 69.536 69.8L74.624 70.856C77.824 71.528 80.208 72.568 81.776 73.976C83.344 75.384 84.128 77.256 84.128 79.592C84.128 81.096 83.824 82.456 83.216 83.672C82.608 84.856 81.744 85.88 80.624 86.744C79.504 87.608 78.144 88.28 76.544 88.76C74.976 89.208 73.2 89.432 71.216 89.432Z" fill="black"/>
<path d="M31.616 89.432C29.344 89.432 27.344 89.144 25.616 88.568C23.888 87.96 22.432 87.064 21.248 85.88C20.096 84.696 19.216 83.224 18.608 81.464C18 79.704 17.696 77.672 17.696 75.368V57.32C17.696 56.488 17.904 55.864 18.32 55.448C18.768 55.032 19.392 54.824 20.192 54.824C20.992 54.824 21.6 55.032 22.016 55.448C22.464 55.864 22.688 56.488 22.688 57.32V75.272C22.688 78.568 23.44 81.032 24.944 82.664C26.48 84.296 28.704 85.112 31.616 85.112C34.56 85.112 36.784 84.296 38.288 82.664C39.792 81.032 40.544 78.568 40.544 75.272V57.32C40.544 56.488 40.752 55.864 41.168 55.448C41.616 55.032 42.224 54.824 42.992 54.824C43.792 54.824 44.4 55.032 44.816 55.448C45.232 55.864 45.44 56.488 45.44 57.32V75.368C45.44 78.44 44.912 81.032 43.856 83.144C42.832 85.224 41.296 86.792 39.248 87.848C37.2 88.904 34.656 89.432 31.616 89.432Z" fill="black"/>
<path d="M61.432 48.336C60.632 48.336 60.008 48.112 59.56 47.664C59.144 47.216 58.936 46.592 58.936 45.792V16.32C58.936 15.488 59.144 14.864 59.56 14.448C60.008 14.032 60.632 13.824 61.432 13.824C62.232 13.824 62.84 14.032 63.256 14.448C63.704 14.864 63.928 15.488 63.928 16.32V29.376H64.024L78.76 15.12C79.24 14.672 79.688 14.352 80.104 14.16C80.552 13.936 81.048 13.824 81.592 13.824C82.328 13.824 82.856 14.016 83.176 14.4C83.528 14.752 83.672 15.184 83.608 15.696C83.544 16.208 83.272 16.704 82.792 17.184L67.48 31.776L67.576 29.328L83.512 44.688C84.088 45.232 84.392 45.792 84.424 46.368C84.456 46.944 84.28 47.424 83.896 47.808C83.512 48.16 82.968 48.336 82.264 48.336C81.624 48.336 81.112 48.208 80.728 47.952C80.344 47.696 79.896 47.328 79.384 46.848L64.024 32.208H63.928V45.792C63.928 46.592 63.72 47.216 63.304 47.664C62.888 48.112 62.264 48.336 61.432 48.336Z" fill="black"/>
<path d="M30.8 48.336C30.096 48.336 29.504 48.176 29.024 47.856C28.576 47.504 28.208 46.992 27.92 46.32L15.008 17.088C14.752 16.416 14.688 15.84 14.816 15.36C14.944 14.88 15.2 14.512 15.584 14.256C16 13.968 16.496 13.824 17.072 13.824C17.808 13.824 18.368 13.984 18.752 14.304C19.136 14.624 19.456 15.104 19.712 15.744L31.808 43.776H30.032L42.032 15.696C42.32 15.088 42.656 14.624 43.04 14.304C43.456 13.984 44.016 13.824 44.72 13.824C45.296 13.824 45.76 13.968 46.112 14.256C46.496 14.512 46.736 14.88 46.832 15.36C46.928 15.84 46.832 16.416 46.544 17.088L33.68 46.32C33.392 46.992 33.024 47.504 32.576 47.856C32.128 48.176 31.536 48.336 30.8 48.336Z" fill="black"/>
</svg>
