<svg width="17" height="21" viewBox="0 0 17 21" fill="none" xmlns="http://www.w3.org/2000/svg">
<path d="M10.625 13.3877C14.1405 13.3877 17 10.5042 17 6.95909C17 3.414 14.1401 0.530518 10.625 0.530518H4.25C3.46773 0.530518 2.83333 1.17025 2.83333 1.95909V10.5305H1.41667C0.634401 10.5305 0 11.1689 0 11.9591C0 12.7493 0.634401 13.3877 1.41667 13.3877H2.83333V14.8162H1.41667C0.634401 14.8162 0 15.456 0 16.2448C0 17.0336 0.634401 17.6734 1.41667 17.6734H2.83333V19.1019C2.83333 19.8908 3.46773 20.5305 4.25 20.5305C5.03227 20.5305 5.66667 19.8908 5.66667 19.1019V17.6734H12.75C13.5323 17.6734 14.1667 17.0336 14.1667 16.2448C14.1667 15.456 13.5323 14.8162 12.75 14.8162H5.66667V13.3877H10.625ZM5.66667 3.38766H10.625C12.5773 3.38766 14.1667 4.99034 14.1667 6.95909C14.1667 8.92784 12.5773 10.5305 10.625 10.5305H5.66667V3.38766Z" fill="#FF9500"/>
</svg>
