<svg width="19" height="16" viewBox="0 0 19 16" fill="none" xmlns="http://www.w3.org/2000/svg">
<path d="M16.2436 1.79301C13.9191 0.294008 11.0487 0.993536 9.49899 2.70909C7.94932 0.993536 5.0789 0.28569 2.75441 1.79301C1.52171 2.59248 0.74689 3.9416 0.694056 5.36564C0.5708 8.59686 3.59968 11.1869 8.22228 15.1592L8.31033 15.2341C8.97947 15.8088 10.0097 15.8088 10.6789 15.2259L10.7757 15.1425C15.3983 11.1785 18.4184 8.58855 18.3039 5.35733C18.2511 3.9416 17.4763 2.59248 16.2436 1.79301ZM9.58703 13.9184L9.49899 14.0016L9.41094 13.9184C5.21978 10.3291 2.45503 7.95562 2.45503 5.54886C2.45503 3.88331 3.77577 2.63413 5.53678 2.63413C6.89274 2.63413 8.21345 3.45862 8.68013 4.59951H10.3266C10.7845 3.45862 12.1052 2.63413 13.4612 2.63413C15.2222 2.63413 16.5429 3.88331 16.5429 5.54886C16.5429 7.95562 13.7782 10.3291 9.58703 13.9184Z" fill="#335C7A"/>
<path d="M10.2292 2.31838L9.50634 3.0298L8.77996 2.31665C7.8913 1.44429 6.68606 0.954251 5.42939 0.954332C4.17272 0.954414 2.96754 1.44461 2.079 2.31708C1.19046 3.18955 0.691324 4.37283 0.691406 5.60661C0.691489 6.84039 1.19078 8.02361 2.07944 8.89596L9.03913 15.7289C9.1631 15.8504 9.33114 15.9187 9.50634 15.9187C9.68155 15.9187 9.84959 15.8504 9.97356 15.7289L16.9394 8.89423C17.827 8.02169 18.3255 6.83888 18.3254 5.60569C18.3252 4.37251 17.8264 3.18983 16.9385 2.31751C16.4981 1.88481 15.9751 1.54156 15.3995 1.30737C14.8239 1.07318 14.2069 0.952637 13.5839 0.952637C12.9608 0.952637 12.3438 1.07318 11.7682 1.30737C11.1926 1.54156 10.6696 1.88481 10.2292 2.31751V2.31838ZM16.0015 7.97856L9.50634 14.3528L3.01386 7.97856C2.6939 7.66775 2.43965 7.29791 2.26574 6.89031C2.09183 6.48271 2.00169 6.04539 2.00049 5.60348C1.99929 5.16156 2.08706 4.72377 2.25876 4.31527C2.43046 3.90677 2.6827 3.53561 3.00098 3.22313C3.31926 2.91065 3.69731 2.663 4.11339 2.49443C4.52947 2.32586 4.97538 2.23969 5.4255 2.24086C5.87561 2.24204 6.32105 2.33054 6.73621 2.50128C7.15138 2.67202 7.52807 2.92164 7.84466 3.23578L9.04178 4.41022C9.10406 4.47144 9.17818 4.51982 9.25978 4.55251C9.34138 4.5852 9.42882 4.60154 9.51695 4.60057C9.60507 4.5996 9.69211 4.58134 9.77295 4.54687C9.85379 4.5124 9.92679 4.46241 9.98766 4.39984L11.1636 3.23578C11.8118 2.64343 12.6688 2.32098 13.5542 2.33628C14.4396 2.35157 15.2844 2.70342 15.911 3.31779C16.5376 3.93216 16.897 4.76117 16.9137 5.63043C16.9304 6.49968 16.6031 7.34142 16.0006 7.97856H16.0015Z" fill="#536471"/>
</svg>
