<svg width="12" height="14" viewBox="0 0 12 14" fill="none" xmlns="http://www.w3.org/2000/svg">
<path d="M7.76074 9.26407C10.0568 9.26407 11.9244 7.38779 11.9244 5.08101C11.9244 2.77423 10.0565 0.897949 7.76074 0.897949H3.59707C3.08615 0.897949 2.67181 1.31422 2.67181 1.82752V7.40493H1.74655C1.23563 7.40493 0.821289 7.82033 0.821289 8.3345C0.821289 8.84867 1.23563 9.26407 1.74655 9.26407H2.67181V10.1936H1.74655C1.23563 10.1936 0.821289 10.6099 0.821289 11.1232C0.821289 11.6365 1.23563 12.0528 1.74655 12.0528H2.67181V12.9823C2.67181 13.4956 3.08615 13.9119 3.59707 13.9119C4.10799 13.9119 4.52233 13.4956 4.52233 12.9823V12.0528H9.14863C9.65955 12.0528 10.0739 11.6365 10.0739 11.1232C10.0739 10.6099 9.65955 10.1936 9.14863 10.1936H4.52233V9.26407H7.76074ZM4.52233 2.75709H7.76074C9.03587 2.75709 10.0739 3.79995 10.0739 5.08101C10.0739 6.36207 9.03587 7.40493 7.76074 7.40493H4.52233V2.75709Z" fill="#FF9500"/>
</svg>
