<svg width="14" height="14" viewBox="0 0 14 14" fill="none" xmlns="http://www.w3.org/2000/svg">
<path d="M6.40345 1.49733C6.46316 1.31272 6.72434 1.31272 6.78405 1.49733L8.00768 5.28079C8.03442 5.36348 8.1115 5.41943 8.19841 5.41924L12.1838 5.41056C12.3781 5.41013 12.4588 5.65911 12.3012 5.77277L9.07282 8.10098C9.00216 8.15195 8.97261 8.2428 8.99979 8.32558L10.2395 12.1021C10.3 12.2865 10.0887 12.4404 9.93176 12.3262L6.71144 9.98233C6.64129 9.93127 6.54621 9.93127 6.47606 9.98233L3.25574 12.3262C3.09878 12.4404 2.88748 12.2865 2.94803 12.1021L4.18771 8.32558C4.21489 8.2428 4.18534 8.15195 4.11468 8.10098L0.886302 5.77277C0.728687 5.65911 0.809398 5.41013 1.00372 5.41056L4.98909 5.41924C5.076 5.41943 5.15308 5.36348 5.17982 5.28079L6.40345 1.49733Z" stroke="#FF9500" stroke-width="1.5"/>
</svg>
